# xmcd
#
# Track frame offsets: 
#        150
#        13172
#        23998
#        35781
#        46637
#        58091
#        69255
#        81199
#        91772
#        104822
#        116874
#        128925
#        140792
#        152779
#        163825
#        176500
#        189388
#        201972
#        214814
#        227141
#        238977
#        250682
#        262094
#        274573
#
# Disc length: 3817 seconds
#
# Revision: 8
# Processed by: cddbd v1.5.2PL0 Copyright (c) Steve Scherf et al.
# Submitted via: ExactAudioCopyFreeDBPlugin 1.0
#
DISCID=660ee718
DTITLE=Various Artist - Doughboys, Playboys and Cowboys [disc 3]
DYEAR=1999
DGENRE=Swing
TTITLE0=Cliff Bruner and His Texas Wanderers - Kangaroo Blues
TTITLE1=Claude Casey and His Pine State Playboys - Pine State Honky Tonk
TTITLE2=Adolph Hofner and His Texans - Better Quit It Now
TTITLE3=The Light Crust Doughboys - Pussy Pussy Pussy
TTITLE4=Adolph Hofner and His Texans - I'll Keep My Old Guitar
TTITLE5=Hank Penny and His Radio Cowboys - Cowboy's Swing
TTITLE6=W. Lee O'daniel and His Hillbilly Boys - Lonesome Road Blues
TTITLE7=Bob Wills and His Texas Playboys - Liza Pull Down the Shades
TTITLE8=Cliff Bruner and His Boys - Truck Driver's Blues
TTITLE9=The Jewel Cowboys - My Untrue Cowgirl
TTITLE10=Cliff Bruner and His Boys - San Antonio Rose
TTITLE11=The Sunshine Boys - Gonna Get Tight
TTITLE12=The Light Crust Doughboys - Let's Make Believe We're Sweethea
TTITLE12=rts
TTITLE13=Hank Penny and His Radio Cowboys - Mississippi Muddle
TTITLE14=Louise Massey and Her Westerners - Billy Boy
TTITLE15=The Light Crust Doughboys - Good Gracious Gracie
TTITLE16=The Light Crust Doughboys - Mean Mean Mama (From Meana)
TTITLE17=The Port Arthur Jubileers - Jones Stomp
TTITLE18=Buddy Jones - Rockin' Rollin' Mama
TTITLE19=Ted Daffan and His Texans - Blue Steel Blues
TTITLE20=Bob Wills and His Texas Playboys - New San Antonio Rose
TTITLE21=Bob Wills and His Texas Playboys - Bob Wills Special
TTITLE22=The Port Arthur Jubileers - Pussywillow
TTITLE23=Hank Penny and His Radio Cowboys - Tobacco State Swing
EXTD=
EXTT0=
EXTT1=
EXTT2=
EXTT3=
EXTT4=
EXTT5=
EXTT6=
EXTT7=
EXTT8=
EXTT9=
EXTT10=
EXTT11=
EXTT12=
EXTT13=
EXTT14=
EXTT15=
EXTT16=
EXTT17=
EXTT18=
EXTT19=
EXTT20=
EXTT21=
EXTT22=
EXTT23=
PLAYORDER=
